 <svg version="1.0" xmlns="http://www.w3.org/2000/svg" width="700.000000pt" height="707.000000pt" viewBox="0 0 700.000000 707.000000" preserveAspectRatio="xMidYMid meet">
<metadata>
Created by potrace 1.12, written by Peter Selinger 2001-2015
</metadata>
<g transform="translate(0.000000,707.000000) scale(0.100000,-0.100000)" fill="#000000" stroke="none">
<path d="M152 3613 l3 -3358 3358 -3 3357 -2 0 3360 0 3360 -3360 0 -3360 0 2
-3357z m6673 -3 l0 -3315 -3315 0 -3315 0 -3 3309 c-2 2641 0 3311 10 3318 7
4 1500 7 3318 5 l3305 -2 0 -3315z"></path>
<path d="M5486 6422 c-3 -3 -6 -110 -6 -237 0 -185 -3 -235 -14 -244 -9 -8
-120 -11 -387 -9 l-374 3 -3 233 -2 232 -388 -2 -387 -3 -5 -230 -5 -230 -430
0 -430 0 -3 233 -2 232 -425 0 -425 -1 -2 -232 -3 -232 -405 0 -405 0 -5 230
-5 230 -352 3 -353 2 0 -350 0 -350 23 -1 c12 0 119 -2 239 -2 119 -1 220 -6
225 -10 4 -5 10 -187 11 -404 3 -324 2 -397 -10 -404 -7 -5 -113 -9 -234 -9
l-222 0 -6 -23 c-3 -13 -3 -131 -1 -263 3 -131 5 -301 5 -376 l0 -138 253 -2
252 -3 3 -407 2 -408 -232 0 c-128 0 -239 -4 -246 -8 -9 -6 -12 -105 -10 -453
l3 -444 247 -1 c135 -1 251 -5 257 -9 18 -10 15 -789 -2 -804 -9 -7 -96 -12
-248 -13 l-234 -3 0 -360 0 -360 365 -2 c244 -1 369 2 377 9 10 8 13 65 13
234 l0 224 373 -2 372 -3 3 -217 2 -218 425 0 425 0 0 229 c0 199 2 230 16
235 9 3 191 6 404 6 300 0 391 -3 397 -12 4 -7 7 -107 8 -223 l0 -210 437 -3
438 -2 2 232 3 233 370 0 370 0 5 -230 5 -230 350 3 350 3 0 382 0 382 -220 5
-220 5 0 420 0 420 208 3 207 2 0 435 0 435 -189 0 c-104 0 -203 3 -220 6
l-31 7 0 392 0 393 107 7 c59 4 149 5 200 2 68 -4 95 -2 103 7 7 9 9 141 8
412 l-3 399 -220 5 -220 5 0 370 0 370 208 3 207 2 -2 352 -3 351 -342 2
c-188 2 -344 0 -347 -3z m637 -51 c4 -1 6 -135 5 -298 l-3 -298 -205 -5 -205
-5 -1 -405 c0 -223 3 -413 8 -422 8 -16 29 -18 217 -18 181 0 210 -2 215 -16
3 -9 6 -168 6 -354 0 -258 -3 -340 -12 -348 -8 -6 -82 -10 -183 -11 -93 0
-182 -1 -197 -1 l-28 0 0 -445 c0 -349 3 -445 13 -446 12 -2 191 -6 345 -8
l82 -1 0 -385 0 -385 -199 0 c-156 0 -201 -3 -210 -14 -8 -9 -10 -142 -9 -472
l3 -459 216 -3 216 -2 7 -47 c8 -59 8 -512 0 -581 l-7 -52 -286 0 c-157 0
-292 4 -298 8 -9 6 -13 68 -15 232 l-3 225 -409 3 c-290 1 -413 -1 -422 -9
-11 -9 -14 -62 -16 -233 l-3 -221 -379 -3 c-293 -2 -381 1 -387 10 -4 7 -8
103 -8 213 -1 179 -3 201 -18 213 -24 17 -884 6 -895 -12 -4 -6 -8 -109 -8
-228 l0 -218 -375 0 -375 0 -2 218 -3 217 -420 0 -420 0 -3 -226 -2 -227 -28
-5 c-16 -3 -159 -6 -320 -7 -224 0 -293 3 -299 12 -10 16 -16 448 -8 546 l7
72 232 0 c167 0 235 3 244 12 15 15 17 874 2 898 -8 13 -47 15 -247 16 -131 0
-244 1 -251 2 -10 2 -12 86 -10 400 l3 397 243 3 242 2 -2 458 -3 457 -252 3
-253 2 -1 33 c-1 37 -1 587 0 634 l1 33 228 2 227 3 3 458 c1 251 1 458 0 459
-2 1 -111 5 -243 8 l-240 5 0 295 0 295 289 3 c190 1 293 -1 300 -8 6 -6 11
-91 11 -223 1 -117 5 -218 9 -225 5 -9 114 -12 446 -12 385 0 440 2 454 16 14
13 16 49 16 235 l0 219 373 -2 372 -3 3 -219 c1 -141 6 -224 13 -233 9 -10
101 -13 473 -13 253 0 467 4 475 9 10 7 13 56 15 232 l1 224 338 3 337 2 0
-223 c0 -160 3 -226 12 -235 17 -17 839 -17 856 0 9 9 12 77 12 244 l0 233 38
4 c29 3 519 1 555 -2z"></path>
<path d="M3438 5012 c-32 -32 -37 -44 -41 -92 l-3 -55 -40 -3 c-21 -2 -45 -9
-52 -15 -9 -7 -77 -12 -190 -14 -176 -3 -176 -3 -204 -30 -23 -22 -28 -35 -28
-74 0 -26 5 -51 10 -54 6 -3 10 -17 10 -30 0 -27 79 -115 103 -115 8 0 20 -7
27 -15 7 -8 18 -15 25 -15 24 0 36 -26 25 -54 -12 -32 -83 -106 -102 -106 -8
0 -28 -15 -46 -33 -25 -25 -29 -36 -20 -45 9 -9 6 -17 -12 -37 -13 -13 -33
-28 -44 -31 -24 -8 -56 -41 -56 -59 0 -6 5 -16 12 -23 9 -9 7 -17 -10 -35 -12
-13 -22 -28 -22 -34 0 -5 -9 -18 -21 -29 -16 -15 -24 -16 -39 -6 -11 7 -25 12
-31 12 -14 0 -119 108 -119 123 0 14 -35 47 -49 47 -5 0 -22 10 -38 23 -15 12
-40 29 -56 37 -26 13 -29 12 -68 -26 -22 -21 -54 -68 -71 -104 -43 -91 -72
-120 -119 -120 -21 0 -41 5 -44 10 -3 6 -14 10 -25 10 -11 0 -20 10 -24 25 -4
15 -14 25 -24 25 -10 0 -29 11 -42 25 -13 14 -31 25 -41 25 -9 0 -19 3 -21 8
-6 13 -112 62 -134 62 -12 0 -27 7 -34 15 -7 8 -19 15 -28 15 -8 0 -22 8 -31
18 -9 10 -42 31 -74 47 -33 15 -61 34 -64 42 -3 7 -13 13 -23 13 -11 0 -22 4
-25 10 -3 5 -21 17 -40 26 -19 9 -35 20 -35 25 0 21 -29 6 -68 -34 -36 -36
-42 -49 -42 -84 0 -23 5 -45 10 -48 5 -3 10 -23 10 -44 0 -22 6 -44 15 -51 8
-7 15 -19 15 -26 0 -33 38 -54 101 -54 54 0 60 -2 55 -18 -9 -27 24 -52 126
-96 20 -9 40 -21 43 -26 3 -6 16 -10 29 -10 25 0 82 -25 91 -41 4 -5 14 -9 24
-9 10 0 28 -11 41 -25 13 -14 29 -25 36 -25 6 0 22 -11 35 -25 13 -13 31 -25
40 -25 29 0 40 -22 22 -42 -9 -10 -21 -18 -28 -18 -22 0 -75 -65 -75 -92 0
-15 -4 -30 -10 -33 -5 -3 -10 -26 -10 -50 0 -29 -5 -45 -15 -49 -10 -4 -15
-20 -15 -50 0 -25 -4 -48 -10 -51 -5 -3 -10 -15 -10 -26 0 -10 -4 -19 -10 -19
-5 0 -10 -6 -10 -13 0 -8 -11 -27 -25 -43 -30 -34 -31 -43 -7 -51 9 -3 33 -21
53 -40 39 -37 37 -37 99 -1 8 4 24 12 35 17 11 5 42 32 70 60 43 44 49 56 46
86 -2 27 3 40 21 55 13 11 28 19 34 20 22 0 94 94 94 124 0 7 7 19 15 26 8 7
15 23 15 37 0 14 4 21 10 18 6 -4 29 -8 51 -10 44 -5 69 -19 69 -41 0 -18 84
-104 103 -104 8 0 20 -7 27 -15 7 -8 21 -15 31 -15 11 0 19 -4 19 -10 0 -5 10
-10 23 -10 49 0 147 -67 147 -100 0 -10 15 -30 34 -46 18 -16 35 -38 37 -49 6
-29 46 -31 74 -5 15 14 25 18 30 11 3 -6 14 -11 24 -11 10 0 28 -11 41 -25 13
-14 29 -25 36 -25 6 0 22 -11 35 -25 13 -14 36 -25 50 -25 14 0 36 -10 48 -22
19 -17 27 -19 42 -10 10 7 29 12 41 12 12 0 32 10 45 22 18 17 26 19 35 10 7
-7 29 -12 49 -12 21 0 41 -4 44 -10 3 -5 28 -10 55 -10 44 0 110 -24 118 -42
2 -5 12 -8 22 -8 9 0 23 -7 30 -15 7 -8 21 -15 31 -15 11 0 19 -4 19 -10 0 -5
8 -10 17 -10 23 0 73 -49 73 -72 0 -10 -4 -18 -10 -18 -16 0 -11 -104 7 -141
9 -19 42 -60 72 -92 31 -32 59 -66 62 -75 4 -9 21 -30 38 -46 17 -17 31 -35
31 -40 1 -29 39 -56 78 -56 23 0 45 -6 52 -15 7 -8 29 -15 49 -15 28 0 44 -7
64 -28 15 -15 27 -33 27 -39 0 -6 7 -16 15 -23 8 -7 15 -24 15 -37 0 -14 11
-38 25 -55 14 -16 25 -36 25 -44 0 -8 5 -14 10 -14 6 0 10 -15 10 -34 0 -19 5
-38 11 -41 5 -4 15 -18 20 -32 8 -21 12 -23 24 -13 13 11 15 7 15 -23 0 -20 7
-42 15 -51 8 -8 15 -25 15 -39 0 -23 37 -67 56 -67 6 0 23 -13 38 -29 22 -23
28 -38 28 -75 0 -27 6 -52 14 -60 8 -8 14 -20 14 -27 0 -7 19 -33 42 -56 45
-46 88 -58 88 -24 0 10 7 24 15 31 8 7 15 19 15 26 0 17 37 19 43 2 3 -10 8
-10 21 1 32 26 39 51 21 71 -12 13 -15 34 -13 89 l3 72 22 -20 c12 -12 29 -21
38 -21 9 0 18 -8 21 -18 17 -51 38 -82 87 -131 31 -29 60 -50 66 -47 6 4 11
30 11 59 0 46 4 55 37 89 l37 38 -27 28 c-15 15 -27 36 -27 45 0 9 -4 17 -10
17 -5 0 -10 8 -10 19 0 10 -7 24 -15 31 -8 7 -15 21 -15 31 0 11 -4 19 -10 19
-5 0 -10 18 -10 39 0 37 -25 102 -42 109 -5 2 -8 10 -8 17 0 8 -12 27 -26 42
-15 15 -37 44 -50 65 -13 20 -28 39 -34 43 -5 3 -10 15 -10 26 0 11 -7 22 -15
25 -8 4 -15 14 -15 23 0 10 -11 28 -25 41 -14 13 -25 30 -25 37 0 8 -11 26
-25 41 -14 15 -25 37 -25 50 0 23 -34 61 -54 62 -6 0 -23 12 -38 27 -26 25
-28 32 -28 104 0 43 -4 81 -10 84 -23 14 -10 101 24 168 28 56 31 68 20 78 -8
6 -14 20 -14 30 0 11 -7 19 -15 19 -8 0 -15 -4 -15 -10 0 -5 -24 -10 -53 -10
-29 0 -58 -5 -65 -12 -9 -9 -17 -7 -35 10 -13 12 -28 22 -33 22 -6 0 -21 11
-34 25 -13 14 -31 25 -39 25 -9 0 -50 34 -91 75 -41 41 -81 75 -88 75 -8 0
-23 11 -34 25 -11 14 -27 25 -37 25 -10 0 -28 11 -41 25 -13 14 -29 25 -35 25
-6 0 -22 11 -35 25 -13 14 -32 25 -43 25 -25 0 -97 31 -97 42 0 4 -9 8 -19 8
-11 0 -23 5 -26 10 -3 6 -15 10 -26 10 -10 0 -19 4 -19 8 0 9 -70 42 -88 42
-7 0 -12 4 -12 9 0 5 -10 13 -22 16 -29 9 -128 105 -128 124 0 7 -11 24 -25
37 -14 13 -25 30 -25 38 0 8 -4 18 -10 21 -5 3 -10 19 -10 35 0 16 5 32 10 35
6 3 10 30 10 59 0 35 5 58 15 66 8 7 15 25 15 41 0 16 5 29 10 29 6 0 10 16
10 35 0 19 4 35 9 35 5 0 11 22 15 50 4 27 11 52 16 55 6 3 10 17 10 31 0 47
51 114 87 114 13 0 36 11 51 25 15 14 31 25 36 25 5 0 21 10 34 23 l24 22 18
-22 c18 -23 70 -32 70 -13 0 6 9 10 20 10 11 0 20 -4 20 -10 0 -5 13 -10 29
-10 16 0 34 -7 41 -15 9 -11 32 -15 81 -15 37 0 71 -4 74 -10 3 -5 19 -10 34
-10 16 0 34 -6 40 -14 15 -18 184 -17 203 2 6 6 17 12 23 12 13 0 43 33 63 68
12 21 11 27 -4 43 -18 20 -64 26 -64 9 0 -6 -30 -10 -70 -10 -40 0 -70 4 -70
10 0 6 -9 10 -20 10 -11 0 -23 8 -27 18 -8 23 -44 62 -57 62 -6 0 -23 -11 -38
-25 -28 -25 -58 -33 -58 -15 0 6 -26 10 -58 10 -58 0 -59 1 -77 38 -10 20 -22
45 -26 54 -17 33 -11 68 11 68 11 0 20 -4 20 -10 0 -5 25 -10 56 -10 36 0 61
-5 70 -15 9 -8 26 -15 39 -15 13 0 27 -4 30 -10 3 -5 18 -10 33 -10 15 0 36
-7 46 -15 29 -22 214 -21 222 0 4 8 14 15 23 15 19 0 70 52 90 91 11 23 11 29
-5 48 -22 25 -46 27 -64 6 -7 -9 -29 -15 -51 -15 -21 0 -41 -5 -44 -10 -5 -8
-11 -7 -21 1 -10 8 -18 8 -27 0 -10 -8 -17 -7 -25 1 -9 9 -15 9 -24 0 -20 -20
-35 -13 -42 19 -9 48 -63 87 -81 60 -22 -37 -170 -57 -200 -27 -8 7 -15 33
-17 57 -4 55 -24 61 -73 23 -33 -25 -37 -26 -54 -10 -25 22 -202 23 -225 1 -8
-8 -21 -15 -30 -15 -8 0 -18 -4 -21 -10 -3 -5 -19 -10 -36 -10 -28 0 -29 2
-29 45 0 43 -2 45 -27 45 -18 -1 -41 -14 -65 -38z m358 -67 c5 -11 23 -15 75
-15 74 0 95 -15 70 -49 -6 -9 -14 -24 -17 -33 -8 -23 -20 -23 -46 2 -16 15
-36 20 -75 20 -38 0 -55 4 -59 15 -4 8 -18 15 -34 15 -15 0 -33 -7 -40 -15 -7
-9 -29 -15 -51 -15 -21 0 -41 -4 -44 -10 -3 -5 -13 -10 -22 -10 -22 0 -53 -29
-53 -51 0 -9 -6 -19 -12 -22 -10 -4 -10 -7 0 -18 6 -7 12 -26 12 -41 0 -31 11
-36 29 -14 9 11 9 19 0 35 -11 17 -10 23 4 39 9 10 17 26 17 36 0 10 6 16 13
14 19 -7 21 -40 3 -50 -14 -8 -14 -10 2 -26 14 -14 36 -18 105 -18 53 0 92 -5
99 -12 7 -7 18 -12 25 -12 8 0 24 -11 37 -25 23 -25 56 -34 56 -15 0 17 26 11
45 -10 10 -11 27 -20 37 -20 10 0 21 -7 24 -15 4 -9 19 -15 40 -15 19 0 34 -4
34 -10 0 -14 103 -13 117 1 15 15 33 3 33 -22 0 -15 7 -19 35 -19 19 0 35 -4
35 -10 0 -5 33 -10 73 -12 56 -2 72 -6 72 -18 0 -9 -12 -16 -30 -18 -16 -2
-36 -9 -43 -14 -9 -8 -16 -8 -24 0 -7 7 -36 12 -65 12 -38 0 -55 4 -59 15 -4
8 -14 15 -23 15 -9 0 -23 6 -29 12 -10 10 -15 10 -22 -2 -7 -12 -12 -12 -22
-2 -6 6 -31 12 -54 12 -24 0 -45 4 -48 9 -4 5 -29 21 -57 35 -40 20 -55 23
-69 14 -22 -14 -50 -4 -50 18 0 23 -29 54 -51 54 -10 0 -21 5 -24 10 -3 6 -42
10 -86 10 -46 0 -79 -4 -79 -10 0 -5 -9 -10 -20 -10 -11 0 -23 -7 -27 -15 -8
-23 2 -28 26 -13 17 10 25 10 39 1 30 -22 76 -42 102 -45 28 -3 30 -21 4 -27
-10 -2 -26 -14 -37 -27 -19 -25 -51 -32 -62 -14 -3 6 -22 10 -41 10 l-34 0 0
-66 c0 -58 -3 -70 -25 -90 -21 -19 -25 -32 -25 -79 0 -30 -4 -55 -10 -55 -5 0
-10 -15 -10 -34 0 -21 -6 -36 -15 -40 -9 -3 -15 -19 -15 -41 0 -19 -4 -35 -10
-35 -5 0 -10 -20 -10 -44 0 -26 -6 -48 -15 -56 -10 -8 -15 -31 -15 -70 0 -39
5 -62 15 -70 8 -7 15 -21 15 -31 0 -11 5 -19 10 -19 6 0 10 -8 10 -18 0 -10
34 -51 75 -92 41 -41 75 -82 75 -92 0 -11 7 -18 19 -18 10 0 24 -7 31 -15 7
-8 25 -15 41 -15 15 0 31 -4 34 -10 3 -5 15 -10 26 -10 10 0 19 -4 19 -8 0
-10 71 -42 96 -43 10 0 33 -9 49 -20 17 -10 37 -22 45 -25 59 -24 79 -37 109
-68 19 -20 42 -36 51 -36 9 0 27 -11 40 -25 13 -14 28 -25 35 -25 6 0 42 -31
80 -70 38 -38 76 -70 85 -70 8 0 26 -12 39 -25 13 -14 29 -25 36 -25 7 0 18
-7 25 -15 18 -21 116 -21 124 1 3 8 10 12 16 9 19 -11 10 -39 -22 -72 -29 -30
-37 -33 -95 -33 -35 0 -63 -4 -63 -10 0 -5 5 -10 10 -10 17 0 12 -136 -5 -150
-16 -13 -20 -40 -7 -40 24 0 41 39 44 100 3 56 6 65 23 69 11 2 23 8 27 14 12
19 48 -23 48 -55 0 -16 6 -31 15 -34 12 -5 15 -26 15 -98 0 -88 1 -93 28 -119
15 -15 35 -27 43 -27 17 0 49 -35 49 -54 0 -7 7 -19 15 -26 8 -7 13 -16 10
-20 -3 -4 2 -13 10 -20 8 -7 15 -20 15 -29 0 -10 11 -28 25 -41 14 -14 25 -35
25 -50 0 -15 11 -36 25 -50 14 -13 25 -28 25 -35 0 -6 23 -33 50 -60 28 -27
50 -57 50 -67 0 -10 5 -18 10 -18 6 0 10 -8 10 -19 0 -10 7 -24 15 -31 8 -7
15 -21 15 -30 0 -37 -12 -50 -46 -50 -32 0 -34 -2 -34 -35 0 -19 -3 -35 -7
-35 -17 0 -43 36 -43 60 0 15 -10 36 -25 50 -14 13 -25 29 -25 36 0 6 -18 30
-40 53 -22 22 -40 47 -40 54 0 8 -11 24 -25 37 -18 17 -23 30 -19 46 4 17 1
26 -10 30 -10 4 -16 18 -16 40 0 27 -4 34 -19 34 -10 0 -24 7 -31 15 -7 8 -17
15 -23 15 -21 0 -47 34 -47 62 0 15 -4 28 -10 28 -5 0 -10 -24 -10 -53 0 -29
-5 -58 -12 -65 -9 -9 -7 -17 10 -35 12 -13 22 -35 22 -49 0 -14 7 -31 15 -38
10 -9 15 -31 15 -73 0 -58 2 -63 42 -104 23 -24 50 -43 60 -43 11 0 18 -7 18
-18 0 -10 11 -29 25 -42 29 -27 32 -40 10 -40 -8 0 -24 -6 -35 -12 -17 -11
-22 -10 -28 0 -6 9 -14 6 -32 -13 -13 -14 -30 -25 -39 -25 -21 0 -81 60 -81
82 0 10 -4 18 -10 18 -5 0 -10 15 -10 34 0 21 -6 36 -15 40 -8 3 -15 14 -15
24 0 10 -11 29 -25 42 -21 19 -25 33 -25 78 0 46 -2 53 -14 43 -11 -9 -19 -9
-35 1 -18 11 -21 23 -21 80 0 62 -9 84 -25 58 -9 -15 -25 -2 -25 21 0 12 -7
19 -19 19 -10 0 -24 7 -31 15 -7 8 -25 15 -41 15 -15 0 -31 5 -34 10 -3 6 -29
10 -57 10 -51 0 -88 19 -88 45 0 27 -33 74 -100 140 l-70 69 0 69 c0 62 3 70
28 92 26 23 26 24 5 25 -27 0 -38 16 -24 34 8 10 6 17 -8 30 -17 16 -19 16
-25 0 -6 -15 -10 -14 -34 9 -16 15 -36 27 -45 27 -10 0 -20 7 -23 15 -4 8 -14
15 -24 15 -11 0 -22 5 -25 10 -3 6 -13 10 -21 10 -8 0 -32 18 -53 40 -31 32
-45 40 -75 40 -20 0 -45 6 -56 12 -15 10 -22 10 -32 0 -19 -19 -73 -15 -93 8
-13 14 -31 20 -59 20 -42 -1 -93 -28 -68 -37 19 -7 14 -33 -7 -33 -10 0 -24 7
-31 15 -7 8 -25 15 -41 15 -15 0 -31 5 -34 10 -3 6 -12 10 -20 10 -8 0 -29 16
-48 35 -19 19 -41 35 -49 35 -8 0 -25 11 -38 25 -14 15 -35 25 -52 25 -28 0
-39 -15 -16 -22 6 -2 8 -10 4 -17 -9 -15 -96 68 -96 92 0 8 -7 20 -15 27 -25
20 -7 30 56 30 38 0 58 4 54 10 -3 6 -48 10 -101 10 -56 0 -94 4 -94 10 0 6
-15 10 -34 10 -19 0 -37 4 -41 9 -6 10 -63 41 -76 41 -13 0 -99 87 -99 101 0
23 -32 49 -61 49 -15 0 -31 5 -34 10 -3 6 -19 10 -34 10 -15 0 -32 5 -39 12
-15 15 -53 -17 -45 -38 3 -8 -2 -25 -11 -39 -9 -13 -16 -34 -16 -45 0 -23 -16
-54 -44 -87 -14 -16 -30 -23 -57 -23 -21 0 -41 -4 -44 -10 -10 -17 -35 -11
-35 8 0 10 -5 23 -12 30 -9 9 -9 15 0 24 7 7 12 21 12 32 0 18 -2 17 -28 -7
-34 -32 -42 -34 -42 -7 0 36 52 110 77 110 18 0 73 57 73 75 0 21 20 18 41 -6
13 -15 26 -19 51 -16 30 4 31 5 10 12 -13 4 -28 18 -33 31 -5 16 -16 24 -32
24 -30 0 -78 24 -102 50 -10 11 -26 20 -36 20 -10 0 -26 11 -37 25 -11 14 -27
25 -35 25 -9 0 -19 5 -22 10 -3 6 -13 10 -22 10 -9 0 -33 18 -54 40 -37 39
-40 40 -103 40 -36 0 -68 5 -71 10 -3 6 -14 10 -25 10 -10 0 -20 7 -24 15 -6
18 2 45 15 45 18 0 8 32 -18 54 -31 27 -24 46 18 46 22 0 29 5 29 20 0 11 -4
20 -10 20 -5 0 -10 7 -10 15 0 23 13 18 50 -20 19 -19 41 -35 51 -35 9 0 25
-11 35 -25 15 -20 28 -25 60 -25 30 0 46 -6 64 -25 13 -14 29 -25 36 -25 6 0
17 -7 24 -15 7 -8 20 -15 29 -15 21 0 68 -48 73 -75 3 -18 12 -20 95 -23 88
-3 92 -2 98 20 4 13 15 32 25 43 10 11 21 30 25 43 3 12 11 22 16 22 5 0 9 16
9 35 0 19 4 35 9 35 5 0 11 10 13 23 2 18 10 23 41 25 21 2 37 -1 37 -7 0 -6
8 -11 17 -11 21 0 113 -88 113 -108 0 -18 25 -42 43 -42 7 0 24 -11 37 -25 13
-14 31 -25 41 -25 9 0 19 -7 23 -15 3 -8 15 -15 26 -15 16 0 20 -6 20 -34 0
-19 -4 -38 -10 -41 -5 -3 -10 -15 -10 -26 0 -17 -8 -19 -95 -19 -76 0 -101 4
-130 20 -20 11 -38 20 -40 20 -3 0 -5 -9 -5 -20 0 -13 7 -20 19 -20 11 0 23
-4 26 -10 3 -5 28 -10 55 -10 28 0 54 -6 62 -14 12 -11 17 -11 33 0 13 9 48
14 108 14 56 0 86 4 82 10 -3 6 -19 10 -35 10 -32 0 -48 15 -25 24 19 7 19 30
0 46 -13 11 -13 16 -3 29 21 26 38 60 38 75 0 7 7 19 15 26 8 7 15 24 15 37 0
17 19 44 60 85 33 33 60 65 60 71 0 6 17 29 38 50 24 25 33 41 25 44 -7 3 -13
9 -13 15 0 13 30 37 47 38 14 0 103 86 103 99 0 5 -7 14 -15 21 -8 7 -15 21
-15 31 0 12 -7 19 -19 19 -11 0 -22 4 -26 9 -7 13 -64 41 -82 41 -7 0 -13 7
-13 15 0 8 5 15 10 15 6 0 10 5 10 10 0 6 -8 10 -17 10 -20 0 -53 28 -53 45 0
7 -7 18 -15 25 -20 16 -19 39 2 62 14 16 34 18 181 18 145 0 166 2 178 18 11
14 16 15 31 4 38 -26 45 -24 87 17 23 22 49 41 59 41 9 0 17 5 17 10 0 6 15
10 34 10 21 0 36 6 40 15 3 8 15 15 26 15 11 0 20 5 20 10 0 6 8 10 19 10 10
0 24 7 31 15 8 10 31 15 67 15 38 0 55 -4 59 -15z m-310 -9 c21 -22 17 -36
-11 -36 -20 0 -25 5 -25 25 0 28 14 32 36 11z m584 -66 c0 -5 20 -10 44 -10
25 0 48 5 51 10 3 6 21 10 40 10 27 0 34 -4 37 -22 2 -19 10 -24 48 -26 24 -2
48 -9 52 -15 6 -9 10 -9 16 0 14 22 58 26 77 6 13 -13 20 -14 23 -5 4 14 52
17 52 2 0 -5 -8 -19 -17 -30 -15 -17 -30 -20 -96 -20 -60 0 -79 3 -83 15 -4
10 -20 15 -49 15 -24 0 -47 5 -50 10 -3 6 -38 10 -76 10 -53 0 -71 4 -75 15
-4 9 -19 15 -40 15 -24 0 -34 5 -34 15 0 11 11 15 40 15 22 0 40 -4 40 -10z
m-390 -30 c0 -5 -4 -10 -10 -10 -5 0 -10 5 -10 10 0 6 5 10 10 10 6 0 10 -4
10 -10z m160 -30 c0 -5 8 -10 18 -10 11 0 26 -8 35 -18 16 -17 15 -20 -12 -46
l-29 -28 -17 26 c-10 14 -27 26 -38 26 -16 0 -18 3 -9 12 7 7 12 20 12 30 0
11 7 18 20 18 11 0 20 -4 20 -10z m-190 -25 c7 -8 19 -15 28 -15 8 0 12 -3 8
-7 -7 -7 -87 -5 -95 3 -7 6 21 34 34 34 7 0 18 -7 25 -15z m106 -119 c15 -16
19 -36 6 -36 -4 0 -12 4 -17 9 -6 5 -28 11 -49 13 -22 2 -41 9 -44 16 -6 18
85 16 104 -2z m-2251 -361 c22 -19 45 -35 51 -35 7 0 21 -15 32 -34 17 -29 18
-37 7 -46 -9 -7 -15 -8 -20 -1 -4 7 -12 7 -25 -2 -24 -14 -25 -30 -5 -47 24
-20 8 -30 -46 -30 -37 0 -49 4 -49 15 0 9 -7 27 -16 40 -9 14 -14 31 -11 39 3
8 -1 20 -9 26 -31 27 -5 107 36 109 8 0 33 -15 55 -34z m472 -875 c4 -17 8
-18 20 -8 18 14 33 -4 33 -41 0 -20 3 -22 12 -13 7 7 20 12 29 12 21 0 36 -20
21 -29 -5 -3 -11 -15 -13 -26 -3 -12 -14 -21 -27 -23 -13 -2 -26 -10 -29 -18
-3 -8 -13 -14 -23 -14 -9 0 -25 -9 -35 -20 -10 -11 -24 -20 -32 -20 -16 0 -16
5 -1 30 7 10 8 23 4 27 -5 4 -11 2 -13 -4 -6 -16 -39 -17 -49 -2 -3 6 -1 16 5
22 6 6 11 19 11 28 0 9 7 19 15 23 8 3 15 12 15 19 0 21 30 77 42 77 5 0 12
-9 15 -20z m2650 -1082 c13 -12 23 -33 23 -49 0 -14 6 -32 14 -38 8 -7 12 -21
9 -32 -8 -29 -33 -5 -33 32 0 15 -4 31 -10 34 -5 3 -10 14 -10 25 0 10 -7 20
-15 24 -15 5 -21 26 -8 26 4 0 17 -10 30 -22z m120 -218 c13 -14 23 -30 23
-36 0 -6 9 -19 19 -29 24 -21 62 -95 55 -107 -10 -16 -23 -7 -39 27 -9 19 -23
39 -31 46 -8 6 -14 17 -14 24 0 7 -16 27 -35 44 -19 17 -35 40 -35 51 0 11 -4
20 -10 20 -5 0 -10 8 -10 17 0 14 5 12 27 -8 15 -13 38 -35 50 -49z m311 -215
c2 -44 7 -84 12 -89 14 -14 12 -26 -2 -26 -7 0 -32 19 -55 42 -34 34 -43 49
-43 77 0 41 34 83 65 79 18 -3 20 -11 23 -83z m-248 -19 c0 -13 -6 -27 -12
-30 -10 -5 -10 -7 0 -12 6 -3 12 -21 12 -39 0 -22 6 -35 17 -39 15 -6 15 -8 1
-22 -26 -26 -58 -2 -58 44 0 37 0 37 -14 12 -8 -17 -10 -29 -3 -38 7 -9 6 -17
-1 -24 -7 -7 -12 -24 -12 -39 0 -15 -5 -31 -11 -34 -14 -9 -49 24 -49 46 0 10
-4 20 -9 24 -19 11 -41 68 -32 79 5 6 11 25 13 41 3 29 5 30 58 33 30 2 59 7
65 13 17 17 35 9 35 -15z m295 -26 c0 -27 -22 -39 -31 -16 -8 22 3 49 19 43 6
-2 12 -14 12 -27z"></path>
<path d="M3258 4718 c-8 -21 2 -38 22 -38 10 0 22 -4 25 -10 3 -5 37 -10 76
-10 62 0 69 2 69 20 0 23 -3 24 -30 8 -16 -10 -24 -10 -40 0 -11 6 -34 12 -52
12 -17 0 -39 7 -48 15 -14 12 -19 13 -22 3z"></path>
<path d="M3587 4604 c-11 -12 3 -24 29 -24 27 0 32 15 8 24 -20 8 -29 8 -37 0z"></path>
<path d="M3210 4463 c0 -12 5 -25 10 -28 6 -3 10 -26 10 -51 0 -24 5 -44 10
-44 6 0 10 8 10 17 0 9 8 25 17 35 16 18 15 21 -20 56 -33 33 -37 35 -37 15z"></path>
<path d="M3060 4320 c0 -5 9 -10 20 -10 11 0 20 5 20 10 0 6 -9 10 -20 10 -11
0 -20 -4 -20 -10z"></path>
<path d="M3210 4319 c0 -5 5 -7 10 -4 6 3 10 8 10 11 0 2 -4 4 -10 4 -5 0 -10
-5 -10 -11z"></path>
<path d="M3185 4300 c-3 -5 -1 -10 4 -10 6 0 11 5 11 10 0 6 -2 10 -4 10 -3 0
-8 -4 -11 -10z"></path>
<path d="M3160 4269 c0 -5 5 -7 10 -4 6 3 10 8 10 11 0 2 -4 4 -10 4 -5 0 -10
-5 -10 -11z"></path>
<path d="M3096 4240 c-17 -18 -18 -20 -2 -26 16 -6 56 20 56 38 0 15 -35 7
-54 -12z"></path>
<path d="M3060 4200 c0 -5 5 -10 10 -10 6 0 10 5 10 10 0 6 -4 10 -10 10 -5 0
-10 -4 -10 -10z"></path>
<path d="M3030 4162 c0 -10 -5 -23 -12 -30 -19 -19 22 -15 43 4 15 14 16 18 4
30 -19 19 -35 17 -35 -4z"></path>
<path d="M2972 4091 c14 -23 33 -23 33 0 0 8 -10 15 -23 17 -21 3 -22 2 -10
-17z"></path>
<path d="M2960 4041 c0 -10 -7 -24 -16 -31 -16 -14 -16 -60 1 -61 6 0 12 8 13
18 2 10 13 28 24 40 19 20 19 23 5 37 -20 21 -27 20 -27 -3z"></path>
<path d="M2437 3972 c-10 -10 -17 -26 -17 -35 0 -10 -8 -17 -19 -17 -26 0 -51
-10 -51 -21 0 -5 16 -9 35 -9 19 0 35 -4 35 -10 0 -5 9 -10 20 -10 18 0 20 7
20 60 0 33 -2 60 -3 60 -2 0 -11 -8 -20 -18z"></path>
<path d="M2300 3930 c0 -5 9 -10 20 -10 11 0 20 5 20 10 0 6 -9 10 -20 10 -11
0 -20 -4 -20 -10z"></path>
<path d="M2910 3905 c0 -19 -4 -35 -10 -35 -5 0 -10 -7 -10 -16 0 -11 5 -14
16 -10 9 3 18 6 20 6 2 0 4 20 4 45 0 25 -4 45 -10 45 -5 0 -10 -16 -10 -35z"></path>
<path d="M2860 3830 c0 -5 5 -10 10 -10 6 0 10 5 10 10 0 6 -4 10 -10 10 -5 0
-10 -4 -10 -10z"></path>
<path d="M2865 3780 c3 -5 8 -10 11 -10 2 0 4 5 4 10 0 6 -5 10 -11 10 -5 0
-7 -4 -4 -10z"></path>
<path d="M2941 3384 c26 -27 35 -32 37 -19 5 22 -26 55 -52 55 -17 0 -16 -4
15 -36z"></path>
<path d="M2990 3340 c0 -5 9 -10 21 -10 11 0 17 5 14 10 -3 6 -13 10 -21 10
-8 0 -14 -4 -14 -10z"></path>
<path d="M3040 3310 c0 -5 14 -10 30 -10 17 0 30 5 30 10 0 6 -13 10 -30 10
-16 0 -30 -4 -30 -10z"></path>
<path d="M3111 3280 c4 -23 9 -25 62 -28 31 -2 57 -7 57 -12 0 -6 5 -10 10
-10 6 0 10 8 10 19 0 21 -42 34 -79 24 -14 -3 -29 1 -42 13 -21 19 -21 19 -18
-6z"></path>
<path d="M3935 3076 c18 -27 14 -76 -5 -76 -6 0 -10 -9 -10 -20 0 -25 12 -25
34 -1 12 14 16 32 14 67 -3 43 -6 49 -26 52 -23 4 -23 3 -7 -22z"></path>
<path d="M4390 2762 c0 -10 -5 -23 -12 -30 -9 -9 -9 -15 0 -24 7 -7 12 -34 12
-61 0 -55 24 -87 67 -87 27 0 31 18 6 27 -45 16 -53 33 -53 115 0 45 -4 78
-10 78 -5 0 -10 -8 -10 -18z"></path>
<path d="M4490 2550 c0 -5 9 -10 20 -10 11 0 20 5 20 10 0 6 -9 10 -20 10 -11
0 -20 -4 -20 -10z"></path>
<path d="M1950 3341 c0 -17 5 -31 10 -31 6 0 10 11 10 24 0 14 -4 28 -10 31
-6 4 -10 -7 -10 -24z"></path>
</g>
</svg>